<?xml version="1.0" encoding="UTF-8" standalone="no"?>
<!--?xml version="1.0" encoding="utf-8"?-->

<!-- Generator: Adobe Illustrator 18.1.1, SVG Export Plug-In . SVG Version: 6.00 Build 0)  -->

<svg
   version="1.1"
   id="_x32_"
   x="0px"
   y="0px"
   viewBox="0 0 512 512"
   style="opacity:1"
   xml:space="preserve"
   sodipodi:docname="favicon.svg"
   inkscape:export-filename="D:\tmp\pickcolorpagenum\og-image.png"
   inkscape:export-xdpi="96"
   inkscape:export-ydpi="96"
   inkscape:version="1.1.1 (3bf5ae0d25, 2021-09-20)"
   width="512"
   height="512"
   xmlns:inkscape="http://www.inkscape.org/namespaces/inkscape"
   xmlns:sodipodi="http://sodipodi.sourceforge.net/DTD/sodipodi-0.dtd"
   xmlns="http://www.w3.org/2000/svg"
   xmlns:svg="http://www.w3.org/2000/svg"><defs
   id="defs17">
	
	
	
	
</defs><sodipodi:namedview
   id="namedview15"
   pagecolor="#ffffff"
   bordercolor="#666666"
   borderopacity="1.0"
   inkscape:pageshadow="2"
   inkscape:pageopacity="1"
   inkscape:pagecheckerboard="0"
   showgrid="false"
   inkscape:zoom="0.43896484"
   inkscape:cx="162.8832"
   inkscape:cy="443.08787"
   inkscape:window-width="2560"
   inkscape:window-height="1361"
   inkscape:window-x="-9"
   inkscape:window-y="-9"
   inkscape:window-maximized="1"
   inkscape:current-layer="_x32_" />
<style
   type="text/css"
   id="style2">
	.st0{fill:#4B4B4B;}
</style>

<style
   type="text/css"
   id="style834">
	.st0{fill:#4B4B4B;}
</style><g
   id="g1899"
   transform="translate(0,-5e-4)"><path
     class="st0"
     d="M 378.413,0 H 208.297 195.115 L 185.8,9.314 57.02,138.102 l -9.314,9.314 v 13.176 265.514 c 0,47.36 38.528,85.895 85.896,85.895 h 244.811 c 47.353,0 85.881,-38.535 85.881,-85.895 V 85.896 C 464.294,38.528 425.766,0 378.413,0 Z m 54.084,426.105 c 0,29.877 -24.214,54.091 -54.084,54.091 H 133.602 c -29.884,0 -54.098,-24.214 -54.098,-54.091 V 160.591 h 83.716 c 24.885,0 45.077,-20.178 45.077,-45.07 V 31.804 h 170.116 c 29.87,0 54.084,24.214 54.084,54.092 z"
     id="path4"
     style="font-variation-settings:normal;opacity:1;vector-effect:none;fill:#4b4b4b;fill-opacity:1;stroke-width:1;stroke-linecap:butt;stroke-linejoin:miter;stroke-miterlimit:4;stroke-dasharray:none;stroke-dashoffset:0;stroke-opacity:1;-inkscape-stroke:none;stop-color:#000000;stop-opacity:1" /><g
     style="opacity:1;stroke-width:1.90288"
     id="g851"
     transform="matrix(0.52551804,0,0,0.52551804,120.14709,164.43255)"><g
       id="g840"
       style="stroke-width:1.90288">
	<path
   class="st0"
   d="m 418.562,173.34 c 5.999,-1.291 10.281,-6.582 10.281,-12.724 V 103.86 c 0,-3.927 -1.775,-7.649 -4.834,-10.124 -3.058,-2.466 -7.07,-3.425 -10.912,-2.6 l -51.621,11.093 V 30.884 c 0,-3.856 -1.713,-7.515 -4.672,-9.99 -2.964,-2.475 -6.869,-3.507 -10.662,-2.816 l -38.686,7.013 c -6.192,1.121 -10.694,6.51 -10.694,12.805 v 78.242 l -80.658,17.333 V 64.117 c 0,-3.856 -1.713,-7.514 -4.672,-9.99 -2.958,-2.475 -6.864,-3.506 -10.662,-2.816 l -38.69,7.004 c -6.192,1.12 -10.693,6.511 -10.693,12.806 v 76.25 l -57.948,12.456 c -5.999,1.282 -10.281,6.59 -10.281,12.724 v 56.756 c 0,3.927 1.776,7.649 4.834,10.124 3.062,2.466 7.07,3.426 10.917,2.601 l 52.478,-11.281 v 108.39 l -57.948,12.456 c -5.999,1.282 -10.281,6.582 -10.281,12.715 v 56.737 c 0,3.928 1.776,7.649 4.834,10.125 3.062,2.466 7.07,3.425 10.917,2.6 l 52.478,-11.281 v 76.492 c 0,3.856 1.712,7.515 4.672,9.99 2.959,2.476 6.864,3.507 10.662,2.816 l 38.686,-6.995 c 6.192,-1.12 10.698,-6.51 10.698,-12.805 v -83.397 l 80.658,-17.334 v 74.502 c 0,3.865 1.712,7.524 4.672,9.99 2.96,2.475 6.865,3.506 10.662,2.815 l 38.686,-7.004 c 6.192,-1.121 10.694,-6.51 10.694,-12.805 V 377.35 l 57.087,-12.267 c 5.999,-1.291 10.281,-6.582 10.281,-12.724 V 295.63 c 0,-3.927 -1.775,-7.649 -4.834,-10.124 -3.058,-2.466 -7.07,-3.426 -10.912,-2.6 l -51.621,11.093 V 185.609 Z M 296.761,307.906 216.103,325.232 V 216.85 l 80.658,-17.334 z"
   id="path836"
   style="stroke-width:1.90288" />
	<path
   class="st0"
   d="m 364.421,0.036 c 0.022,0 0.04,0 0.062,-0.009 L 364.65,0 Z"
   id="path838"
   style="stroke-width:1.90288" />
</g></g></g></svg>
